<?xml version="1.0" encoding="UTF-8" standalone="no"?>
<svg
   xmlns:dc="http://purl.org/dc/elements/1.1/"
   xmlns:cc="http://creativecommons.org/ns#"
   xmlns:rdf="http://www.w3.org/1999/02/22-rdf-syntax-ns#"
   xmlns:svg="http://www.w3.org/2000/svg"
   xmlns="http://www.w3.org/2000/svg"
   xmlns:sodipodi="http://sodipodi.sourceforge.net/DTD/sodipodi-0.dtd"
   xmlns:inkscape="http://www.inkscape.org/namespaces/inkscape"
   id="svg"
   version="1.1"
   width="2706.0125"
   height="447.36667"
   viewBox="0 0 2706.0124 447.36666"
   sodipodi:docname="Brand.svg"
   inkscape:version="1.0.1 (3bc2e813f5, 2020-09-07)">
  <metadata
     id="metadata13">
    <rdf:RDF>
      <cc:Work
         rdf:about="">
        <dc:format>image/svg+xml</dc:format>
        <dc:type
           rdf:resource="http://purl.org/dc/dcmitype/StillImage" />
        <dc:title />
      </cc:Work>
    </rdf:RDF>
  </metadata>
  <defs
     id="defs11" />
  <sodipodi:namedview
     pagecolor="#ffffff"
     bordercolor="#666666"
     borderopacity="1"
     objecttolerance="10"
     gridtolerance="10"
     guidetolerance="10"
     inkscape:pageopacity="0"
     inkscape:pageshadow="2"
     inkscape:window-width="1147"
     inkscape:window-height="779"
     id="namedview9"
     showgrid="false"
     inkscape:zoom="0.14063953"
     inkscape:cx="989.33512"
     inkscape:cy="-395.88188"
     inkscape:window-x="33"
     inkscape:window-y="211"
     inkscape:window-maximized="0"
     inkscape:current-layer="text924"
     inkscape:document-rotation="0" />
  <path
     id="path10"
     style="fill:#808080;fill-opacity:1;fill-rule:evenodd;stroke-width:1.17176"
     d="m 68.432447,47.854904 c -92.45034,97.468906 -89.73601,223.539166 -0.88671,321.390626 47.758643,52.59749 114.172153,78.9015 180.998043,78.10351 57.56201,-0.68737 90.42539,-9.62117 140.54492,-46.66797 0,0 -14.93398,-16.64688 -35.75,-39.79492 A 184.77148,184.77148 0 0 1 231.2137,406.99943 184.77148,184.77148 0 0 1 46.442217,222.22795 184.77148,184.77148 0 0 1 80.815267,114.89201 h -12.38282 z" />
  <path
     id="path10-6"
     style="fill:#2196f3;fill-opacity:1;fill-rule:evenodd;stroke-width:1.16647"
     d="M 2452.1745,0.00138684 C 2399.823,0.16983184 2349.964,15.684688 2314.9792,47.778731 c 13.2972,14.74817 26.6036,29.440484 39.9004,44.085938 a 184.77148,184.77148 0 0 1 128.3867,-51.892578 184.77148,184.77148 0 0 1 184.7715,184.771489 184.77148,184.77148 0 0 1 -30.666,101.93946 v 73.99804 c 80.7248,-73.42949 97.0253,-224.68054 12.2148,-318.083989 C 2600.3389,28.359697 2523.9154,-0.22944616 2452.1745,0.00138684 Z" />
  <g
     aria-label="Channels"
     transform="scale(0.95604714,1.0459735)"
     id="text924"
     style="font-size:280.68px;line-height:1.25;font-family:sans-serif;letter-spacing:0px;fill:#808080;fill-opacity:1;stroke-width:7.01698">
    <path
       d="m 213.32743,314.18266 q -22.75043,0 -42.07459,-6.71548 -19.18711,-6.71549 -33.02924,-20.00942 -13.84213,-13.29392 -21.51697,-33.16629 -7.5378,-19.87236 -7.5378,-45.91201 0,-24.25798 7.2637,-43.9933 7.26369,-19.73531 21.10582,-33.85154 13.29392,-13.56803 32.89218,-20.96877 19.73531,-7.40074 43.03395,-7.40074 12.88277,0 23.16158,1.50756 10.41586,1.37051 19.18711,3.70037 9.1824,2.60396 16.58314,5.89318 7.53779,3.15217 13.15688,5.89319 v 49.47533 h -6.03024 q -3.83742,-3.28922 -9.7306,-7.8119 -5.75614,-4.52267 -13.15688,-8.9083 -7.53779,-4.38562 -16.30904,-7.40074 -8.77125,-3.01512 -18.77596,-3.01512 -11.10111,0 -21.10582,3.56332 -10.0047,3.42627 -18.50185,11.51227 -8.086,7.81189 -13.15688,20.69467 -4.93382,12.88277 -4.93382,31.24757 0,19.18711 5.34498,32.06989 5.48203,12.88277 13.70507,20.28351 8.3601,7.53779 18.63891,10.82701 10.27881,3.15217 20.28351,3.15217 9.59356,0 18.91301,-2.87807 9.45651,-2.87806 17.40545,-7.81189 6.71549,-3.97447 12.47162,-8.49715 5.75613,-4.52267 9.4565,-7.81189 h 5.48204 v 48.79007 q -7.67485,3.42627 -14.66444,6.44139 -6.98959,3.01512 -14.66443,5.20793 -10.00471,2.87807 -18.77596,4.38562 -8.77125,1.50756 -24.12093,1.50756 z"
       style="font-style:normal;font-variant:normal;font-weight:bold;font-stretch:normal;font-family:sans-serif;-inkscape-font-specification:'sans-serif Bold';word-spacing:0px;fill:#808080;fill-opacity:1;stroke-width:7.01698"
       id="path850" />
    <path
       d="m 476.05377,310.20819 h -49.61238 v -76.33728 q 0,-9.31946 -0.95936,-18.50186 -0.95936,-9.31945 -3.28922,-13.70507 -2.74101,-5.07088 -8.08599,-7.40075 -5.20793,-2.32986 -14.66444,-2.32986 -6.71549,0 -13.70508,2.19281 -6.85253,2.19281 -14.93853,6.98959 V 310.20819 H 321.46049 V 96.957181 h 49.33828 v 76.337279 q 13.15687,-10.2788 25.21734,-15.76084 12.19752,-5.48203 26.99901,-5.48203 24.94324,0 38.92242,14.52739 14.11623,14.52738 14.11623,43.44509 z"
       style="font-style:normal;font-variant:normal;font-weight:bold;font-stretch:normal;font-family:sans-serif;-inkscape-font-specification:'sans-serif Bold';word-spacing:0px;fill:#808080;fill-opacity:1;stroke-width:7.01698"
       id="path852" />
    <path
       d="m 614.61211,270.05231 v -32.06988 q -10.00471,0.82231 -21.65402,2.32986 -11.64932,1.37051 -17.67955,3.28922 -7.40074,2.32987 -11.37522,6.85254 -3.83742,4.38563 -3.83742,11.64932 0,4.79678 0.82231,7.81189 0.8223,3.01512 4.11152,5.75613 3.15217,2.74102 7.53779,4.11153 4.38563,1.23346 13.70508,1.23346 7.40074,0 14.93853,-3.01512 7.67485,-3.01512 13.43098,-7.94895 z m 0,23.84684 q -3.97447,3.01512 -9.86766,7.26369 -5.89318,4.24857 -11.10111,6.71549 -7.26369,3.28922 -15.07558,4.79677 -7.8119,1.64461 -17.13135,1.64461 -21.92813,0 -36.72961,-13.56802 -14.80148,-13.56803 -14.80148,-34.67385 0,-16.85725 7.53779,-27.54721 7.53779,-10.68996 21.37992,-16.85724 13.70508,-6.16729 33.98859,-8.77125 20.28352,-2.60397 42.07459,-3.83742 v -0.82231 q 0,-12.74572 -10.41586,-17.5425 -10.41586,-4.93383 -30.69937,-4.93383 -12.19752,0 -26.03965,4.38563 -13.84213,4.24857 -19.87236,6.57844 h -4.52268 v -37.14076 q 7.8119,-2.05577 25.3544,-4.79678 17.67955,-2.87807 35.3591,-2.87807 42.07459,0 60.71349,13.01983 18.77596,12.88277 18.77596,40.56703 v 104.70679 h -48.92713 z"
       style="font-style:normal;font-variant:normal;font-weight:bold;font-stretch:normal;font-family:sans-serif;-inkscape-font-specification:'sans-serif Bold';word-spacing:0px;fill:#808080;fill-opacity:1;stroke-width:7.01698"
       id="path854" />
    <path
       d="m 863.49627,310.20819 h -49.61238 v -76.33728 q 0,-9.31946 -0.95936,-18.50186 -0.95935,-9.31945 -3.28921,-13.70507 -2.74102,-5.07088 -8.086,-7.40075 -5.20793,-2.32986 -14.66443,-2.32986 -6.71549,0 -13.70508,2.19281 -6.85254,2.19281 -14.93854,6.98959 V 310.20819 H 708.90299 V 156.30017 h 49.33828 v 16.99429 q 13.15688,-10.2788 25.21735,-15.76084 12.19752,-5.48203 26.999,-5.48203 24.94324,0 38.92242,14.52739 14.11623,14.52738 14.11623,43.44509 z"
       style="font-style:normal;font-variant:normal;font-weight:bold;font-stretch:normal;font-family:sans-serif;-inkscape-font-specification:'sans-serif Bold';word-spacing:0px;fill:#808080;fill-opacity:1;stroke-width:7.01698"
       id="path856" />
    <path
       d="m 1063.4534,310.20819 h -49.6124 v -76.33728 q 0,-9.31946 -0.9594,-18.50186 -0.9593,-9.31945 -3.2892,-13.70507 -2.741,-5.07088 -8.086,-7.40075 -5.20792,-2.32986 -14.66442,-2.32986 -6.71549,0 -13.70508,2.19281 -6.85254,2.19281 -14.93853,6.98959 V 310.20819 H 908.86009 V 156.30017 h 49.33828 v 16.99429 q 13.15687,-10.2788 25.21734,-15.76084 12.19752,-5.48203 26.99899,-5.48203 24.9433,0 38.9224,14.52739 14.1163,14.52738 14.1163,43.44509 z"
       style="font-style:normal;font-variant:normal;font-weight:bold;font-stretch:normal;font-family:sans-serif;-inkscape-font-specification:'sans-serif Bold';word-spacing:0px;fill:#808080;fill-opacity:1;stroke-width:7.01698"
       id="path858" />
    <path
       d="m 1260.3953,242.36806 h -112.9298 q 1.0964,18.0907 13.7051,27.68425 12.7457,9.59356 37.4148,9.59356 15.6238,0 30.2883,-5.61908 14.6644,-5.61909 23.1615,-12.06047 h 5.4821 v 39.60767 q -16.7202,6.71549 -31.5217,9.73061 -14.8015,3.01511 -32.7551,3.01511 -46.3232,0 -70.9923,-20.83171 -24.6692,-20.83172 -24.6692,-59.34299 0,-38.10012 23.2986,-60.30234 23.4357,-22.33928 64.1398,-22.33928 37.5519,0 56.4649,19.05006 18.913,18.91301 18.913,54.54621 z m -49.0641,-28.91772 q -0.4112,-15.48674 -7.6749,-23.29863 -7.2637,-7.81189 -22.6134,-7.81189 -14.2532,0 -23.4356,7.40074 -9.1824,7.40074 -10.2789,23.70978 z"
       style="font-style:normal;font-variant:normal;font-weight:bold;font-stretch:normal;font-family:sans-serif;-inkscape-font-specification:'sans-serif Bold';word-spacing:0px;fill:#808080;fill-opacity:1;stroke-width:7.01698"
       id="path860" />
    <path
       d="m 1344.5445,310.20819 h -49.3383 V 96.957181 h 49.3383 z"
       style="font-style:normal;font-variant:normal;font-weight:bold;font-stretch:normal;font-family:sans-serif;-inkscape-font-specification:'sans-serif Bold';word-spacing:0px;fill:#808080;fill-opacity:1;stroke-width:7.01698"
       id="path862" />
    <path
       d="m 1524.9033,261.41811 q 0,23.84684 -21.3799,38.51127 -21.3799,14.52739 -58.5207,14.52739 -20.5576,0 -37.2778,-3.83743 -16.7202,-3.83742 -26.8619,-8.49714 v -40.56704 h 4.5226 q 3.7004,2.60397 8.4972,5.75614 4.9338,3.01511 13.8421,6.57843 7.6749,3.15217 17.4055,5.48204 9.7306,2.19281 20.8317,2.19281 14.5274,0 21.5169,-3.15217 6.9896,-3.28922 6.9896,-9.59355 0,-5.61909 -4.1115,-8.086 -4.1115,-2.60396 -15.6238,-4.93383 -5.482,-1.23345 -14.9385,-2.60396 -9.3195,-1.50756 -16.9943,-3.56332 -20.9688,-5.48203 -31.1105,-16.9943 -10.1418,-11.64932 -10.1418,-28.91771 0,-22.20223 20.9688,-36.86666 21.1058,-14.80149 57.5613,-14.80149 17.2684,0 33.0292,3.56332 15.8979,3.42627 24.8062,7.40075 v 38.92242 h -4.2485 q -10.9641,-7.5378 -25.0803,-12.19752 -13.9792,-4.79678 -28.3695,-4.79678 -11.9235,0 -20.1465,3.28922 -8.086,3.28922 -8.086,9.31945 0,5.48203 3.7004,8.3601 3.7003,2.87807 17.4054,5.75613 7.5378,1.50756 16.172,3.01512 8.7713,1.37051 17.5425,3.56332 19.4612,5.07088 28.7807,16.03494 9.3194,10.82701 9.3194,27.13605 z"
       style="font-style:normal;font-variant:normal;font-weight:bold;font-stretch:normal;font-family:sans-serif;-inkscape-font-specification:'sans-serif Bold';word-spacing:0px;fill:#808080;fill-opacity:1;stroke-width:7.01698"
       id="path864" />
  </g>
  <g
     aria-label="Binding"
     transform="scale(0.95604388,1.0459771)"
     id="text924-2"
     style="font-size:280.681px;line-height:1.25;font-family:sans-serif;letter-spacing:0px;fill:#2196f3;fill-opacity:1;stroke-width:7.01702">
    <path
       d="m 1728.5568,249.59636 q 0,14.80153 -6.0303,26.45089 -5.8932,11.64936 -16.3091,19.32423 -12.0605,9.04538 -26.5879,12.88282 -14.3904,3.83744 -36.5927,3.83744 h -89.0834 V 108.0224 h 79.2157 q 24.6692,0 36.0445,1.64461 11.5123,1.64462 22.7505,7.26372 11.6493,5.8932 17.2684,15.89795 5.7562,9.86769 5.7562,22.61345 0,14.80154 -7.8119,26.1768 -7.812,11.2382 -22.0653,17.54256 v 1.09641 q 20.0095,3.97449 31.6588,16.44615 11.7865,12.47167 11.7865,32.89231 z m -67.4293,-83.87538 q 0,-5.0709 -2.6039,-10.14179 -2.467,-5.0709 -8.9084,-7.53782 -5.7561,-2.19282 -14.3904,-2.32988 -8.4971,-0.2741 -23.9839,-0.2741 h -4.9339 v 43.17115 h 8.2231 q 12.4717,0 21.2429,-0.41115 8.7713,-0.41116 13.8422,-2.74103 7.1267,-3.15218 9.3195,-8.08602 2.1928,-5.0709 2.1928,-11.64936 z m 12.8828,83.05307 q 0,-9.73064 -3.8374,-14.93859 -3.7004,-5.345 -12.7458,-7.94897 -6.1673,-1.78167 -16.9943,-1.91872 -10.8271,-0.13705 -22.6135,-0.13705 h -11.5123 v 50.84602 h 3.8375 q 22.2023,0 31.7959,-0.13705 9.5935,-0.13705 17.6796,-3.56333 8.223,-3.42629 11.2382,-9.04539 3.1521,-5.75615 3.1521,-13.15692 z"
       style="font-style:normal;font-variant:normal;font-weight:bold;font-stretch:normal;font-family:sans-serif;-inkscape-font-specification:'sans-serif Bold';fill:#2196f3;fill-opacity:1;stroke-width:7.01702"
       id="path835" />
    <path
       d="m 1814.3509,312.09174 h -49.3385 V 158.18316 h 49.3385 z m 1.3705,-175.83678 h -52.0795 V 98.839961 h 52.0795 z"
       style="font-style:normal;font-variant:normal;font-weight:bold;font-stretch:normal;font-family:sans-serif;-inkscape-font-specification:'sans-serif Bold';fill:#2196f3;fill-opacity:1;stroke-width:7.01702"
       id="path837" />
    <path
       d="m 2015.5421,312.09174 h -49.6125 v -76.33756 q 0,-9.31949 -0.9594,-18.50192 -0.9594,-9.31949 -3.2892,-13.70513 -2.7411,-5.0709 -8.0861,-7.40077 -5.2079,-2.32987 -14.6644,-2.32987 -6.7156,0 -13.7052,2.19282 -6.8525,2.19282 -14.9386,6.98962 v 109.09281 h -49.3384 V 158.18316 h 49.3384 v 16.99436 q 13.157,-10.27885 25.2175,-15.7609 12.1975,-5.48205 26.9991,-5.48205 24.9433,0 38.9225,14.52744 14.1163,14.52743 14.1163,43.44525 z"
       style="font-style:normal;font-variant:normal;font-weight:bold;font-stretch:normal;font-family:sans-serif;-inkscape-font-specification:'sans-serif Bold';fill:#2196f3;fill-opacity:1;stroke-width:7.01702"
       id="path839" />
    <path
       d="m 2210.5661,312.09174 h -49.3385 v -16.035 q -12.7457,10.41589 -23.8469,15.34974 -11.1011,4.93385 -25.6286,4.93385 -28.0955,0 -44.9528,-21.65411 -16.8573,-21.6541 -16.8573,-58.38384 0,-19.59833 5.6191,-34.67397 5.7562,-15.21269 15.6239,-26.03974 9.3194,-10.27884 22.6134,-15.89795 13.294,-5.75615 26.588,-5.75615 13.8421,0 22.6134,3.01513 8.9084,2.87808 18.2278,7.40077 V 98.839961 h 49.3385 z m -49.3385,-42.4859 v -75.51525 q -5.2079,-2.19282 -10.9641,-3.15218 -5.7561,-0.95936 -10.5529,-0.95936 -19.4613,0 -29.1919,12.19757 -9.7307,12.06051 -9.7307,33.57756 0,22.61346 7.8119,32.8923 7.812,10.1418 25.0804,10.1418 6.7155,0 14.2534,-2.46693 7.5378,-2.60397 13.2939,-6.71551 z"
       style="font-style:normal;font-variant:normal;font-weight:bold;font-stretch:normal;font-family:sans-serif;-inkscape-font-specification:'sans-serif Bold';fill:#2196f3;fill-opacity:1;stroke-width:7.01702"
       id="path841" />
    <path
       d="m 2306.502,312.09174 h -49.3385 V 158.18316 h 49.3385 z m 1.3705,-175.83678 H 2255.793 V 98.839961 h 52.0795 z"
       style="font-style:normal;font-variant:normal;font-weight:bold;font-stretch:normal;font-family:sans-serif;-inkscape-font-specification:'sans-serif Bold';fill:#2196f3;fill-opacity:1;stroke-width:7.01702"
       id="path843" />
    <path
       d="m 2507.6932,312.09174 h -49.6126 v -76.33756 q 0,-9.31949 -0.9593,-18.50192 -0.9594,-9.31949 -3.2892,-13.70513 -2.7411,-5.0709 -8.0861,-7.40077 -5.2079,-2.32987 -14.6645,-2.32987 -6.7155,0 -13.7051,2.19282 -6.8525,2.19282 -14.9386,6.98962 v 109.09281 h -49.3384 V 158.18316 h 49.3384 v 16.99436 q 13.157,-10.27885 25.2175,-15.7609 12.1975,-5.48205 26.9991,-5.48205 24.9433,0 38.9225,14.52744 14.1163,14.52743 14.1163,43.44525 z"
       style="font-style:normal;font-variant:normal;font-weight:bold;font-stretch:normal;font-family:sans-serif;-inkscape-font-specification:'sans-serif Bold';fill:#2196f3;fill-opacity:1;stroke-width:7.01702"
       id="path845" />
    <path
       d="m 2702.7172,294.41212 q 0,21.6541 -6.1673,36.45564 -6.1673,14.80154 -17.2685,23.16166 -11.1011,8.49718 -26.862,12.19757 -15.6239,3.83743 -35.3593,3.83743 -16.035,0 -31.6588,-1.91871 -15.4868,-1.91872 -26.862,-4.65975 v -38.5114 h 6.0302 q 9.0454,3.56333 22.0653,6.4414 13.0198,3.01513 23.2987,3.01513 13.7051,0 22.2023,-2.60397 8.6342,-2.46692 13.1569,-7.12667 4.2486,-4.38564 6.1673,-11.2382 1.9187,-6.85256 1.9187,-16.44615 v -2.87808 q -8.9083,7.26372 -19.7354,11.51231 -10.827,4.24859 -24.121,4.24859 -32.3441,0 -49.8866,-19.46128 -17.5426,-19.46128 -17.5426,-59.20615 0,-19.05013 5.345,-32.89231 5.345,-13.84218 15.0756,-24.12102 9.0454,-9.59359 22.2023,-14.93859 13.294,-5.345 27.1362,-5.345 12.4717,0 22.6135,3.01513 10.2788,2.87808 18.6389,8.08602 l 1.7817,-6.85256 h 47.8309 z m -49.3385,-30.83653 v -69.7591 q -4.2486,-1.78167 -10.4159,-2.74103 -6.1673,-1.09641 -11.1011,-1.09641 -19.4613,0 -29.1919,11.23821 -9.7307,11.10115 -9.7307,31.11064 0,22.2023 8.2231,30.97358 8.3601,8.77129 24.6692,8.77129 7.4008,0 14.5275,-2.32988 7.1266,-2.32987 13.0198,-6.1673 z"
       style="font-style:normal;font-variant:normal;font-weight:bold;font-stretch:normal;font-family:sans-serif;-inkscape-font-specification:'sans-serif Bold';fill:#2196f3;fill-opacity:1;stroke-width:7.01702"
       id="path847" />
  </g>
</svg>
