<?xml version="1.0" encoding="UTF-8" standalone="no"?>
<svg
   xmlns:dc="http://purl.org/dc/elements/1.1/"
   xmlns:cc="http://creativecommons.org/ns#"
   xmlns:rdf="http://www.w3.org/1999/02/22-rdf-syntax-ns#"
   xmlns:svg="http://www.w3.org/2000/svg"
   xmlns="http://www.w3.org/2000/svg"
   xmlns:sodipodi="http://sodipodi.sourceforge.net/DTD/sodipodi-0.dtd"
   xmlns:inkscape="http://www.inkscape.org/namespaces/inkscape"
   id="svg"
   version="1.1"
   width="400"
   height="419.5121951219512"
   viewBox="0, 0, 400,419.5121951219512"
   sodipodi:docname="Icon.svg"
   inkscape:version="0.92.4 (5da689c313, 2019-01-14)">
  <metadata
     id="metadata13">
    <rdf:RDF>
      <cc:Work
         rdf:about="">
        <dc:format>image/svg+xml</dc:format>
        <dc:type
           rdf:resource="http://purl.org/dc/dcmitype/StillImage" />
        <dc:title></dc:title>
      </cc:Work>
    </rdf:RDF>
  </metadata>
  <defs
     id="defs11" />
  <sodipodi:namedview
     pagecolor="#ffffff"
     bordercolor="#666666"
     borderopacity="1"
     objecttolerance="10"
     gridtolerance="10"
     guidetolerance="10"
     inkscape:pageopacity="0"
     inkscape:pageshadow="2"
     inkscape:window-width="801"
     inkscape:window-height="559"
     id="namedview9"
     showgrid="false"
     inkscape:zoom="0.56255812"
     inkscape:cx="200"
     inkscape:cy="209.7561"
     inkscape:window-x="0"
     inkscape:window-y="245"
     inkscape:window-maximized="0"
     inkscape:current-layer="svg" />
  <path
     style="fill:#f39c14;fill-rule:evenodd;stroke:none"
     inkscape:connector-curvature="0"
     d="m 91.383,89.726 c -0.575,2.292 0.091,42.347 0.75,45.074 10.227,42.332 79.34,67.448 145.467,52.863 36.572,-8.066 62.329,-26.905 69.536,-50.863 l 1.023,-3.4 0.142,-21.4 c 0.084,-12.638 -0.004,-21.236 -0.216,-21 -0.197,0.22 -0.677,1.616 -1.067,3.102 -8.299,31.663 -66.299,59.391 -114.899,54.929 -1.275,-0.117 -4.479,-0.408 -7.119,-0.647 -45.809,-4.148 -85.242,-28.16 -92.167,-56.123 -0.89,-3.596 -1.094,-3.953 -1.45,-2.535 m 4.373,11.961 c 13.688,26.262 54.218,46.087 97.844,47.861 l 6.2,0.252 0.104,20.952 0.103,20.951 -5.303,-0.266 C 141.295,188.754 102.184,167.65 93.078,136.6 92.305,133.961 92.25,132.602 92.136,113 l -0.12,-20.8 1.175,3.411 c 0.647,1.877 1.801,4.611 2.565,6.076 M 6,127.7 c 0.33,0.337 9.15,6.304 19.6,13.259 10.45,6.956 53.955,35.911 96.677,64.344 l 77.678,51.697 0.022,75.7 c 0.017,54.258 0.146,75.7 0.458,75.7 0.239,0 36.734,-24.18 81.1,-53.733 44.366,-29.552 83.635,-55.71 87.265,-58.127 3.63,-2.417 10.965,-7.309 16.3,-10.87 l 9.7,-6.475 v -76.021 c 0,-60.711 -0.101,-75.961 -0.5,-75.72 -0.275,0.166 -43.945,29.256 -97.044,64.646 -53.099,35.389 -96.839,64.289 -97.2,64.222 C 199.695,256.255 156.02,227.3 103,191.977 3.098,125.421 5.007,126.686 6,127.7"
     id="path1" />
  <path
     style="fill:#f3c30c;fill-rule:evenodd;stroke:none"
     inkscape:connector-curvature="0"
     d="m 185.933,20.211 c -38.032,3.315 -75.174,21.84 -88.137,43.959 -0.739,1.261 -2.006,2.406 -4.512,4.074 -1.916,1.275 -10.864,7.202 -19.884,13.171 -9.02,5.968 -23.87,15.798 -33,21.845 -9.13,6.047 -20.65,13.665 -25.6,16.929 -4.95,3.264 -9.157,6.073 -9.349,6.242 C 4.986,126.84 199.16,256.2 200.238,256.2 c 0.817,0 194.562,-128.856 194.562,-129.4 0,-0.15 -3.915,-2.862 -8.7,-6.025 C 377.827,115.306 349.826,96.768 318,75.69 l -14.6,-9.67 -2.58,-3.91 C 282.492,34.333 232.614,16.143 185.933,20.211 m -93.1,72.05 c 6.925,27.963 46.358,51.975 92.167,56.123 2.64,0.239 5.844,0.53 7.119,0.647 48.6,4.462 106.6,-23.266 114.899,-54.929 0.39,-1.486 0.87,-2.882 1.067,-3.102 0.212,-0.236 0.3,8.362 0.216,21 l -0.142,21.4 -1.023,3.4 c -17.05,56.672 -134.496,74.702 -193.309,29.676 -9.11,-6.974 -17.379,-17.804 -20.215,-26.476 -2.081,-6.362 -2.095,-6.539 -2.296,-28.527 -0.219,-24 -0.086,-25.685 1.517,-19.212"
     id="path2" />
  <path
     style="fill:#e37c23;fill-rule:evenodd;stroke:none"
     inkscape:connector-curvature="0"
     d="m 92.136,113 c 0.114,19.602 0.169,20.961 0.942,23.6 9.106,31.05 48.217,52.154 101.626,54.837 l 5.303,0.266 -0.103,-20.951 -0.104,-20.952 -6.2,-0.252 C 146.135,147.618 103.158,124.532 93.191,95.611 L 92.016,92.2 92.136,113 M 5.387,128.095 C 5.281,128.373 5.241,162.44 5.297,203.8 L 5.4,279 l 97,64.68 c 53.35,35.574 97.135,64.689 97.3,64.7 0.165,0.011 0.29,-34.045 0.277,-75.68 L 199.955,257 122.277,205.303 C 79.555,176.87 35.82,147.752 25.09,140.598 12.631,132.291 5.51,127.772 5.387,128.095"
     id="path3" />
  <path
     style="fill:#d58c43;fill-rule:evenodd;stroke:none"
     inkscape:connector-curvature="0"
     d="m 4.8,203.146 v 76.345 l 97.367,64.855 c 53.553,35.669 97.569,64.854 97.816,64.854 0.246,0 44.27,-29.186 97.832,-64.857 l 97.385,-64.857 -0.099,-76.443 -0.099,-76.443 -0.102,76.298 -0.102,76.298 -9.699,6.475 c -5.334,3.56 -12.669,8.452 -16.299,10.869 -3.63,2.417 -42.899,28.575 -87.265,58.127 -44.366,29.553 -80.996,53.724 -81.4,53.713 -0.404,-0.011 -44.385,-29.126 -97.735,-64.7 L 5.4,279 v -76.1 c 0,-41.855 -0.135,-76.1 -0.3,-76.1 -0.165,0 -0.3,34.355 -0.3,76.346"
     id="path4" />
</svg>
